<svg
      xmlns="http://www.w3.org/2000/svg"
      width="500"
      height="500"
      version="1.1"
      viewBox="0 0 132.292 132.292"
    >
      <g>
        <path
          fill="currentColor"
          strokeWidth="0.279"
          d="M51.429 110.193c-2.646-1.064-3.49-8.335-5.23-45.06-.547-11.56-.906-17.735-1.41-24.277-.622-8.078-.753-9.237-.974-8.631-.267.73-.986 9.746-1.669 20.91-1.392 22.757-2.123 28.962-3.809 32.309-1.303 2.587-3.728 2.837-5.87.605-1.457-1.518-2.291-3.994-3.146-9.335-1.184-7.397-1.703-10.111-2.127-11.118l-.43-1.02-.668.77c-.394.454-1.144 2.284-1.828 4.464-1.391 4.435-1.872 5.433-3.165 6.568-2.287 2.008-5.61 1.332-8.45-1.718l-1.171-1.258-4.87-.088c-4.323-.078-4.935-.147-5.456-.62-.895-.811-.803-2.466.181-3.24.732-.577.99-.6 5.651-.509 5.675.11 6.517.374 8.75 2.733.715.755 1.572 1.459 1.904 1.564.975.31 1.194-.123 3.032-5.976 1.007-3.207 2.142-5.131 3.615-6.126 1.354-.915 4.08-.789 5.18.24 1.673 1.56 2.247 3.47 3.763 12.523.628 3.748 1.3 7.202 1.495 7.674.346.837.366.797.813-1.654.854-4.684 1.263-9.689 2.706-33.067 1.044-16.928 1.85-22.251 3.663-24.18.76-.809 1.76-1.029 2.925-.645 1.543.51 2.27 2.317 3.024 7.523.81 5.586 1.119 10.256 3.082 46.602.647 11.998 1.432 23.153 1.643 23.364.227.227.875-7.723 1.562-19.178 2.13-35.519 3.107-41.3 6.98-41.3 3.474 0 4.445 3.79 5.864 22.883.727 9.78 1.295 15.834 1.832 19.533.456 3.138.912 5.158 1.117 4.953.296-.296.973-4.74 1.773-11.65 1.264-10.908 1.894-13.668 3.564-15.62 2.59-3.026 6.477-1.6 7.862 2.886.308.997.894 4.175 1.302 7.064 1.088 7.694 1.865 9.526 3.33 7.843.669-.77.758-1.096 1.94-7.148 1.124-5.754 2.406-7.587 5.463-7.808 3.261-.236 5.012 1.592 6.826 7.128.565 1.724 1.246 3.406 1.514 3.736.812 1.003 1.85.246 3.62-2.639 1.995-3.251 3.013-3.953 5.737-3.953 1.7 0 2.162.115 3.347.837 3.173 1.932 2.615 1.814 8.56 1.814 5.12 0 5.526.038 6.213.578.954.75 1.03 2.419.146 3.216-.54.487-1.075.53-6.488.526-6.518-.007-6.012.105-10.271-2.255-.834-.462-1.508-.657-1.873-.54-.314.099-1.148 1.106-1.853 2.237-2.703 4.337-5.566 5.767-8.697 4.346-1.67-.759-2.675-2.338-3.982-6.257-1.205-3.618-1.738-4.642-2.414-4.642-.621 0-1.145 1.522-1.792 5.207-1.357 7.736-3.105 10.42-6.782 10.42-3.927 0-5.454-2.643-6.742-11.663-.73-5.122-1.364-7.87-1.813-7.87-.306 0-.988 2.181-1.38 4.419-.153.869-.664 5.008-1.137 9.197-1.206 10.69-2.164 14.134-4.293 15.433-1.89 1.152-3.961.45-5.057-1.71-1.558-3.077-2.21-7.469-3.618-24.41-1.134-13.633-1.537-17.475-1.817-17.302-.203.125-.325 1.093-.833 6.56-.43 4.63-1.332 17.171-1.957 27.207-1.384 22.238-2.299 27.708-4.778 28.572-1.034.36-1.283.363-2.13.023z"
        ></path>
      </g>
    </svg>