<svg
    xmlns="http://www.w3.org/2000/svg"
    width="500"
    height="500"
    version="1.1"
    viewBox="0 0 132.292 132.292"
>
    <g display="inline">
        <path
          fill="currentColor"
          strokeWidth="0.329"
          d="M31.471 131.634c-4.833-.554-9.929-3.983-12.397-8.342-2.21-3.902-2.104-.825-1.997-58.151l.098-51.765c.812-6.55 6.797-11.663 11.667-12.198 6.105-.726 3.374-.62 37.304-.62 33.938 0 35.575.027 37.303.62 4.385 1.506 7.718 4.162 9.77 7.787 2.208 3.898 2.103.826 1.995 58.148-.093 49.76-.12 51.827-.715 53.362-1.074 2.775-2.246 4.59-4.215 6.532-1.97 1.943-3.34 2.784-6.49 3.987-1.813.692-2.017.697-36.498.734-19.07.021-35.192-.02-35.824-.094zm69.777-12.723c1.997-1.354 1.873 2.148 1.873-52.614 0-54.57.103-51.617-1.845-52.936-.926-.627-1.757-.642-35.13-.642-33.03 0-34.198-.373-35.872 1.108-1.253 2.004-.998 1.472-1.103 52.13-.087 41.603.076 50.331.448 51.221.484 1.157 1.59 2.04 2.863 2.286.438.084 15.883.135 34.321.112 32.347-.04 33.556-.063 34.445-.665zM55.92 94.21c-1.293-.648-1.931-1.83-1.888-3.496.075-2.833 1.562-3.88 5.508-3.88h2.497V77.24l-1.61 1.349c-4.673 3.912-11.081 4.668-16.244 1.916-5.348-2.85-8.501-9.048-7.499-14.738.682-3.873 1.549-5.092 9.436-13.272 11.933-12.376 16.525-16.74 18.092-17.197 1.85-.54 2.681-.488 4.345.267 1.752.795 3.544 2.508 15.488 14.806C94.208 60.836 94.9 61.756 95.6 65.724c1.002 5.692-2.302 12.195-7.538 14.832-5.183 2.611-10.875 2.02-15.699-1.632l-2.109-1.596v9.44l2.932.114c2.564.1 3.039.215 3.78.913 1.704 1.601 1.704 4.362 0 5.964-1.065 1.004-1.805.79-10.435.88-8.14.07-9.742.005-10.61-.43z"
        ></path>
    </g>
</svg>