<svg
      xmlns="http://www.w3.org/2000/svg"
      width="500"
      height="500"
      version="1.1"
      viewBox="0 0 132.292 132.292"
    >
      <g>
        <g
          fill="currentColor"
          stroke="none"
          strokeLinecap="butt"
          strokeLinejoin="miter"
          strokeOpacity="1"
          strokeWidth="0.261"
          transform="translate(.548 -.805)"
        >
          <path d="M.343 21.46l-.077 92.375c-.338 10.477 7.875 18.654 19.913 18.356l92.155.109c12.307.06 18.287-6.483 18.607-18.797l-.027-30.245c.138-13.017-18.672-12.84-18.548-.214l-.017 30.5-92.385-.055.22-92.465H50.28c14.653.174 15.403-19.258.257-19.356l-30.427.137C6.571 1.626.117 7.699.343 21.46z"></path>
          <path d="M85.945 1.602c-12.96.03-12.67 20.097 0 20.067H99.28L51.753 68.403c-11.153 10.72 2.222 24.04 13.465 13.994l47.015-48.06-.342 14.962c-.034 12.04 18.766 11.549 18.544.203l.04-37.714c.12-6.46-3.586-10.072-10.978-10.03z"></path>
        </g>
      </g>
    </svg>