<svg
      xmlns="http://www.w3.org/2000/svg"
      width="500"
      height="500"
      version="1.1"
      viewBox="0 0 132.292 132.292"
    >
      <g>
        <path
          fill="currentColor"
          strokeLinecap="square"
          strokeLinejoin="round"
          strokeWidth="5"
          d="M249.885 1.9a40.05 40.05 0 00-39.936 40.05A40.05 40.05 0 00232.5 77.974v48.416l-80.797 46.648-41.892-24.185a40.05 40.05 0 00-19.918-37.588 40.05 40.05 0 00-54.711 14.658 40.05 40.05 0 0014.66 54.71 40.05 40.05 0 0042.431-1.49l41.928 24.208v93.296l-41.847 24.16a40.05 40.05 0 00-42.512-1.542 40.05 40.05 0 00-14.66 54.709 40.05 40.05 0 0054.71 14.66 40.05 40.05 0 0019.926-37.492l41.885-24.182 80.797 46.648v48.317a40.05 40.05 0 00-22.55 36.023A40.05 40.05 0 00250 498a40.05 40.05 0 0040.05-40.05 40.05 40.05 0 00-22.55-36.024v-48.317l80.797-46.648 41.885 24.182a40.05 40.05 0 0019.925 37.492 40.05 40.05 0 0054.711-14.66 40.05 40.05 0 00-14.66-54.71 40.05 40.05 0 00-42.513 1.544l-41.846-24.16v-93.297l41.928-24.207a40.05 40.05 0 0042.431 1.49 40.05 40.05 0 0014.66-54.711 40.05 40.05 0 00-54.71-14.658 40.05 40.05 0 00-19.92 37.588l-41.891 24.185-80.797-46.648V77.975a40.05 40.05 0 0022.55-36.026A40.05 40.05 0 00250 1.9a40.05 40.05 0 00-.115 0z"
          transform="scale(.26458)"
        ></path>
      </g>
    </svg>