<svg
      xmlns="http://www.w3.org/2000/svg"
      width="383"
      height="411.093"
      version="1.1"
      viewBox="0 0 101.335 108.768"
    >
      <path
        fill="none"
        stroke="currentColor"
        strokeDasharray="none"
        strokeLinecap="round"
        strokeLinejoin="round"
        strokeMiterlimit="4"
        strokeOpacity="1"
        strokeWidth="7.937"
        d="M91.442 80.925l-38.176 22.041a5.196 5.196 0 01-5.197 0L9.893 80.926a5.196 5.196 60 01-2.598-4.5V32.342a5.196 5.196 120 012.598-4.5L48.07 5.802a5.196 5.196 0 015.197 0l38.176 22.04a5.196 5.196 60 012.598 4.5v44.083a5.196 5.196 120 01-2.598 4.5z"
      ></path>
      <path
        fill="none"
        stroke="currentColor"
        strokeDasharray="none"
        strokeLinecap="butt"
        strokeLinejoin="miter"
        strokeMiterlimit="4"
        strokeOpacity="1"
        strokeWidth="7.937"
        d="M50.668 4.302v52.465"
      ></path>
      <path
        fill="none"
        stroke="currentColor"
        strokeDasharray="none"
        strokeLinecap="butt"
        strokeLinejoin="miter"
        strokeMiterlimit="4"
        strokeOpacity="1"
        strokeWidth="7.937"
        d="M7.295 79.425l43.43-25.074"
      ></path>
      <path
        fill="none"
        stroke="currentColor"
        strokeDasharray="none"
        strokeLinecap="butt"
        strokeLinejoin="miter"
        strokeMiterlimit="4"
        strokeOpacity="1"
        strokeWidth="7.937"
        d="M94.04 79.425l-43.63-25.19"
      ></path>
      <path
        fill="currentColor"
        stroke="currentColor"
        strokeLinecap="butt"
        strokeLinejoin="miter"
        strokeOpacity="1"
        strokeWidth="0.265"
        d="M10.143 78.339l40.525-21.572 41.698 23.406-41.698 24.293z"
        opacity="0.3"
      ></path>
    </svg>