<svg
      xmlns="http://www.w3.org/2000/svg"
      width="383"
      height="411.093"
      version="1.1"
      viewBox="0 0 101.335 108.768"
    >
      <g transform="translate(-15.1 -15.49)">
        <path
          fill="currentColor"
          strokeWidth="0.265"
          d="M63.254 123.618c-2.285-.764-43.784-22.097-45.558-23.039-1.68-1.055-2.331-1.901-2.596-3.987V43.41c.058-1.833.79-2.995 2.596-3.99 3.38-1.913 9.13-4.97 23.407-12.11l22.299-11.153c1.577-.83 3.155-.95 4.732 0L90.433 27.31c14.277 7.14 22.083 11.332 23.407 12.112 1.585.855 2.388 2.062 2.596 3.989v53.18c-.304 1.891-1.077 3.186-2.596 3.99-1.419.803-9.11 4.961-23.348 12.081l-22.24 11.122c-1.942.646-3.181.671-4.998-.166zm-1.72-32.782V68.28l-18.918-9.458c-10.405-5.202-18.977-9.458-19.05-9.458-.072 0-.131 10.15-.131 22.556v22.557l18.851 9.443c10.368 5.194 18.94 9.45 19.05 9.458.11.008.199-10.136.199-22.542zm22.622-38.892c9.968-4.983 18.124-9.121 18.124-9.196 0-.074-8.215-4.24-18.256-9.26l-18.256-9.124-18.256 9.125c-10.041 5.018-18.257 9.185-18.257 9.26 0 .186 36.037 18.223 36.446 18.242.182.008 8.486-4.063 18.455-9.047z"
        ></path>
      </g>
    </svg>