<svg
      xmlns="http://www.w3.org/2000/svg"
      width="500"
      height="500"
      version="1.1"
      viewBox="0 0 132.292 132.292"
    >
      <g>
        <path
          fill="currentColor"
          stroke="none"
          strokeLinecap="butt"
          strokeLinejoin="miter"
          strokeOpacity="1"
          strokeWidth="0.322"
          d="M44.565 6.97c-1.202 5.67 3.564 17.117 15.238 24.75 9.44 8.072-17.724 25.59-33.118 38.637C5.12 88.645 5.003 106.29 21.625 129.06c.447.593 1.133.804 1.962.784l97.895.186c.811-.013 1.051-.837 1.04-1.731-.181-13.644-62.486-28.156-49.718-61.068 5.43-12.127 23.449-28.597 13.49-39.524-6.276-5.742-25.478-12.521-32.82-22.342-2.75-3.731-7.384-5.078-8.909 1.604z"
        ></path>
      </g>
    </svg>