<svg
      xmlns="http://www.w3.org/2000/svg"
      width="500"
      height="500"
      version="1.1"
      viewBox="0 0 132.292 132.292"
    >
      <g>
        <path
          fill="currentColor"
          strokeWidth="0.059"
          d="M60.139 121.48c-.657-.31-.967-.518-1.471-.99-2.028-1.897-3.312-5.367-1.84-7.764 1.027-1.535 2.55-2.887 4.334-3.54 1.035-.329 4.49-1.483 6.765-2.477 5.793-2.533 9.863-5.728 13.816-10.247 6.195-7.08 9.972-14.94 10.973-24.617.327-3.158.536-6.54.25-9.697-1.444-15.953-9.168-28.524-22.054-35.852-2.353-1.338-6.663-3.248-8.631-4.732-2.54-1.927-2.909-3.767-2.172-6.936.505-2.048 1.986-3.588 4.01-4.17.862-.248 2.092-.257 2.978-.02.194.052.42.104.5.115.223.031 1.605.52 2.826.999A54.479 54.479 0 0185 20.125c2.703 2.222 5.636 5.187 7.898 7.984 6.048 7.482 10.306 16.662 12.228 26.367.227 1.143.51 2.837.628 3.743l.073.565c4.904.026 17.22.052 18.652.044l.037.002c4.924.016 6.969 1.884 6.973 5.503.012.475-.01 4.485-.009 4.862.01 3.964-1.67 5.214-6.744 5.366-1.696-.01-16.216.043-18.913.08l-.042.339c-.086.704-.447 2.797-.68 3.93-1.884 9.21-6.007 17.854-11.864 24.876-1.491 1.788-3.652 4.036-5.327 5.543-4.939 4.443-10.94 8.056-17.38 10.462a60.686 60.686 0 01-4.493 1.48c-.486.135-1.104.324-1.373.419-1.646.498-3.04.453-4.525-.209zm-9.47-29.53a26.912 26.912 0 01-4.483-.764c-6.553-1.692-12.208-5.972-15.712-11.893-.77-1.301-1.746-3.436-2.175-4.754l-.1-.31c-15.355-.01-6.765-.054-22.12-.064C3.292 74.12.79 72.025.8 69.204c.006-1.252.012-3.553.011-5.044.019-3.375 2.522-5.778 5.244-5.808 15.367-.01 6.757.048 22.124.038l.17-.485a25.906 25.906 0 0111.03-13.61c3.165-1.917 6.636-3.09 10.485-3.55 1.224-.145 4.393-.145 5.617 0 3.16.377 5.956 1.198 8.645 2.54 2.706 1.351 4.815 2.894 6.976 5.104 2.985 3.052 5.145 6.76 6.29 10.797.759 2.679 1.02 4.757.963 7.674-.034 1.757-.106 2.541-.37 4.013-1.226 6.83-5.248 12.958-11.034 16.806-3.49 2.322-7.2 3.682-11.423 4.188-.926.111-3.95.163-4.857.083z"
        ></path>
      </g>
    </svg>