<svg
      xmlns="http://www.w3.org/2000/svg"
      width="500"
      height="500"
      version="1.1"
      viewBox="0 0 132.292 132.292"
    >
      <g
        fillOpacity="1"
        strokeDasharray="none"
        strokeMiterlimit="4"
        strokeOpacity="1"
      >
        <circle
          cx="83.831"
          cy="123.284"
          r="2.272"
          fill="#3b96d9"
          stroke="#000"
          strokeLinecap="square"
          strokeLinejoin="round"
          strokeWidth="1.058"
          transform="rotate(-6.784)"
        ></circle>
        <circle
          cx="92.516"
          cy="129.788"
          r="2.272"
          fill="#3b96d9"
          stroke="#000"
          strokeLinecap="square"
          strokeLinejoin="round"
          strokeWidth="1.058"
          transform="rotate(-6.784)"
        ></circle>
        <circle
          cx="82.32"
          cy="134.948"
          r="2.272"
          fill="#3b96d9"
          stroke="#000"
          strokeLinecap="square"
          strokeLinejoin="round"
          strokeWidth="1.058"
          transform="rotate(-6.784)"
        ></circle>
        <path
          fill="#b7b6ca"
          stroke="#000"
          strokeLinecap="butt"
          strokeLinejoin="miter"
          strokeWidth="1.975"
          d="M63.94.674l-.003.015L46.942.82C44.151 31.119 43.891 41.15 20.03 61.378 6.135 75.069 8.625 96.283 21.997 108.972c.98.333 1.97.651 2.97.957a8.356 8.356 0 018.13-6.425 8.356 8.356 0 018.355 8.355 8.356 8.356 0 01-.2 1.816 145.9 145.9 0 004.736.7 8.356 8.356 0 018.343-7.909 8.356 8.356 0 018.356 8.356 8.356 8.356 0 01-.032.723c.893.002 1.76-.007 2.59-.028.959.015 1.95.012 2.955 0a8.356 8.356 0 01-.002-.2 8.356 8.356 0 018.355-8.357 8.356 8.356 0 018.28 7.231c1.4-.2 2.825-.424 4.272-.674a8.356 8.356 0 01-.167-1.658 8.356 8.356 0 018.356-8.356 8.356 8.356 0 018.099 6.302 167.07 167.07 0 002.85-.833c13.372-12.689 16.422-35.967 1.469-47.719C85.85 41.026 85.662 31.12 82.87.821L65.876.689l-.004-.015-.966.008z"
        ></path>
        <path
          fill="#b7b6ca"
          stroke="none"
          strokeLinecap="square"
          strokeLinejoin="round"
          strokeWidth="1.995"
          d="M48.074-1.938h33.77l.601 10.14-35.072-.134z"
        ></path>
        <circle
          cx="38.139"
          cy="88.468"
          r="9.132"
          fill="#d7d7d7"
          stroke="#000"
          strokeLinecap="square"
          strokeLinejoin="round"
          strokeWidth="1.852"
        ></circle>
        <circle
          cx="65.656"
          cy="90.584"
          r="9.132"
          fill="#d7d7d7"
          stroke="#000"
          strokeLinecap="square"
          strokeLinejoin="round"
          strokeWidth="1.852"
        ></circle>
        <circle
          cx="92.643"
          cy="88.468"
          r="9.132"
          fill="#d7d7d7"
          stroke="#000"
          strokeLinecap="square"
          strokeLinejoin="round"
          strokeWidth="1.852"
        ></circle>
        <circle
          cx="79.943"
          cy="63.597"
          r="9.132"
          fill="#d7d7d7"
          stroke="#000"
          strokeLinecap="square"
          strokeLinejoin="round"
          strokeWidth="1.852"
        ></circle>
        <circle
          cx="52.427"
          cy="63.597"
          r="9.132"
          fill="#d7d7d7"
          stroke="#000"
          strokeLinecap="square"
          strokeLinejoin="round"
          strokeWidth="1.852"
        ></circle>
        <g
          fill="#3b96d9"
          stroke="#000"
          strokeLinecap="square"
          strokeLinejoin="round"
          strokeWidth="1.058"
        >
          <circle cx="51.155" cy="59.792" r="2.272"></circle>
          <circle cx="55.698" cy="65.272" r="2.272"></circle>
          <circle cx="49.155" cy="66.602" r="2.272"></circle>
        </g>
        <g
          fill="#3b96d9"
          stroke="#000"
          strokeLinecap="square"
          strokeLinejoin="round"
          strokeWidth="1.058"
        >
          <circle cx="78.671" cy="59.792" r="2.272"></circle>
          <circle cx="83.215" cy="65.272" r="2.272"></circle>
          <circle cx="76.672" cy="66.602" r="2.272"></circle>
        </g>
        <g
          fill="#3b96d9"
          stroke="#000"
          strokeLinecap="square"
          strokeLinejoin="round"
          strokeWidth="1.058"
        >
          <circle cx="91.371" cy="84.663" r="2.272"></circle>
          <circle cx="95.915" cy="90.142" r="2.272"></circle>
          <circle cx="89.372" cy="91.473" r="2.272"></circle>
        </g>
        <g
          fill="#3b96d9"
          stroke="#000"
          strokeLinecap="square"
          strokeLinejoin="round"
          strokeWidth="1.058"
        >
          <circle cx="64.384" cy="86.78" r="2.272"></circle>
          <circle cx="68.927" cy="92.259" r="2.272"></circle>
          <circle cx="62.385" cy="93.59" r="2.272"></circle>
        </g>
        <g
          fill="#3b96d9"
          stroke="#000"
          strokeLinecap="square"
          strokeLinejoin="round"
          strokeWidth="1.058"
        >
          <circle cx="36.867" cy="84.663" r="2.272"></circle>
          <circle cx="41.411" cy="90.142" r="2.272"></circle>
          <circle cx="34.868" cy="91.473" r="2.272"></circle>
        </g>
        <circle
          cx="76.766"
          cy="89.304"
          r="2.272"
          fill="#3b96d9"
          stroke="#000"
          strokeLinecap="square"
          strokeLinejoin="round"
          strokeWidth="1.058"
          transform="rotate(24.646)"
        ></circle>
        <circle
          cx="83.375"
          cy="96.747"
          r="2.272"
          fill="#3b96d9"
          stroke="#000"
          strokeLinecap="square"
          strokeLinejoin="round"
          strokeWidth="1.058"
          transform="rotate(24.646)"
        ></circle>
        <circle
          cx="73.868"
          cy="101.767"
          r="2.272"
          fill="#3b96d9"
          stroke="#000"
          strokeLinecap="square"
          strokeLinejoin="round"
          strokeWidth="1.058"
          transform="rotate(24.646)"
        ></circle>
        <circle
          cx="80.922"
          cy="99.597"
          r="2.272"
          fill="#3b96d9"
          stroke="#000"
          strokeLinecap="square"
          strokeLinejoin="round"
          strokeWidth="1.058"
          transform="rotate(14.162)"
        ></circle>
        <circle
          cx="89.45"
          cy="107.89"
          r="2.272"
          fill="#3b96d9"
          stroke="#000"
          strokeLinecap="square"
          strokeLinejoin="round"
          strokeWidth="1.058"
          transform="rotate(14.162)"
        ></circle>
        <circle
          cx="77.388"
          cy="108.977"
          r="2.272"
          fill="#3b96d9"
          stroke="#000"
          strokeLinecap="square"
          strokeLinejoin="round"
          strokeWidth="1.058"
          transform="rotate(14.162)"
        ></circle>
        <circle
          cx="84.877"
          cy="109.601"
          r="2.272"
          fill="#3b96d9"
          stroke="#000"
          strokeLinecap="square"
          strokeLinejoin="round"
          strokeWidth="1.058"
          transform="rotate(4.135)"
        ></circle>
        <circle
          cx="93.459"
          cy="119.563"
          r="2.272"
          fill="#3b96d9"
          stroke="#000"
          strokeLinecap="square"
          strokeLinejoin="round"
          strokeWidth="1.058"
          transform="rotate(4.135)"
        ></circle>
        <circle
          cx="81.975"
          cy="118.599"
          r="2.272"
          fill="#3b96d9"
          stroke="#000"
          strokeLinecap="square"
          strokeLinejoin="round"
          strokeWidth="1.058"
          transform="rotate(4.135)"
        ></circle>
      </g>
    </svg>